<?xml version="1.0" encoding="utf-8"?>
<!-- Generator: Adobe Illustrator 27.5.0, SVG Export Plug-In . SVG Version: 6.00 Build 0)  -->
<svg version="1.1" xmlns="http://www.w3.org/2000/svg" xmlns:xlink="http://www.w3.org/1999/xlink" x="0px" y="0px"
	 viewBox="0 0 500 500" style="enable-background:new 0 0 500 500;" xml:space="preserve">
<g id="Background_Simple">
	<g>
		<path style="fill:#C6FF00;" d="M265.01,78.551c-0.015-0.01-0.03-0.02-0.045-0.03c-15.931-10.63-40.202-11.218-56.965-5.16
			c-30,10.84-26,34.995-52,51.989s-51,11.028-76,33.061c-25,22.033-27.257,63.803-17,83.343c10.257,19.54,22,33.851,12,67.464
			s-9,72.652,31,93.199c40,20.547,71-23.255,97-14.249c26,9.005,75,48.9,129,36.988c54-11.912,30-52.84,65-64.487
			c35-11.647,55-51.873,43-94.337s-42-50.624-35-77.355c5.283-20.171,12.363-39.573-1.096-58.978
			c-17.377-25.056-47.102-35.808-75.875-33.266c-10.728,0.948-23.047,1.322-34.207-1.276
			C281.045,92.483,275.161,85.335,265.01,78.551z"/>
		<path style="opacity:0.7;fill:#FFFFFF;" d="M265.01,78.551c-0.015-0.01-0.03-0.02-0.045-0.03
			c-15.931-10.63-40.202-11.218-56.965-5.16c-30,10.84-26,34.995-52,51.989s-51,11.028-76,33.061
			c-25,22.033-27.257,63.803-17,83.343c10.257,19.54,22,33.851,12,67.464s-9,72.652,31,93.199c40,20.547,71-23.255,97-14.249
			c26,9.005,75,48.9,129,36.988c54-11.912,30-52.84,65-64.487c35-11.647,55-51.873,43-94.337s-42-50.624-35-77.355
			c5.283-20.171,12.363-39.573-1.096-58.978c-17.377-25.056-47.102-35.808-75.875-33.266c-10.728,0.948-23.047,1.322-34.207-1.276
			C281.045,92.483,275.161,85.335,265.01,78.551z"/>
		<path style="fill:#FFFFFF;" d="M419.694,227.417L251.519,267.25l-0.161-0.106l153.248-76.407c0.12-0.581,0.237-1.161,0.394-1.761
			c2.454-9.372,5.294-18.577,6.284-27.694L251.452,266.374l-0.187-0.045l141.472-149.08c-6.295-5.728-13.425-10.251-21.059-13.606
			L251.09,265.573l-0.191,0.022l73.29-168.557c-7.478,0.527-15.532,0.659-23.32-0.336l-50.394,168.242l-0.172,0.086l11.524-188.415
			c-6.95-3.845-15.135-6.032-23.459-6.8l11.316,194.748l-0.133,0.14L194.919,80.267c-7.723,5.77-12.07,12.983-16.714,20.467
			l70.605,163.743l-0.077,0.177l-99.975-135.109c-7.051,3.593-14.034,5.826-20.97,7.741l120.171,127.409l-0.012,0.192
			L83.141,155.804c-1.047,0.828-2.094,1.685-3.141,2.608c-5.298,4.669-9.564,10.23-12.916,16.272l180.148,90.505l0.055,0.185
			L57.468,219.803c0.591,8.526,2.515,16.204,5.532,21.952c0.501,0.954,1.006,1.894,1.511,2.826l182.208,21.323l0.115,0.155
			l-168.04,19.146c0.068,6.375-0.884,13.585-3.233,22.03l170.92-40.484l0.161,0.106L70.567,354.644
			c1.229,8.18,3.83,16.061,8.194,23.304l167.787-110.322l0.187,0.045L115.33,406.142c10.49,3.015,20.338,1.961,29.626-0.808
			L246.91,268.427l0.191-0.022l-51.536,118.526c2.524,0.014,5.002,0.394,7.436,1.237c2.427,0.841,5.055,1.951,7.869,3.263
			l36.655-122.375l0.172-0.086l-8.388,137.139c5.516,2.813,11.341,5.644,17.43,8.283l-8.422-144.954l0.133-0.14l46.424,156.726
			c7.262,1.136,14.714,1.607,22.304,1.17l-67.986-157.67l0.077-0.177l107.443,145.2c6.77-5.258,10.556-11.535,13.37-17.973
			L250.042,269.307l0.012-0.192l141.653,93.758c1.602-0.816,3.352-1.557,5.293-2.203c6.55-2.18,12.573-5.361,17.961-9.369
			l-164.193-82.489l-0.055-0.185l189.515,45.498c2.166-7.4,3.298-15.315,3.252-23.536l-192.2-22.492l-0.115-0.155l181.351-20.662
			C428.484,239.419,423.951,233.045,419.694,227.417z M246.606,266.72l0.587-0.139l-0.434,0.216L246.606,266.72z M246.825,267.575
			l-0.171-0.02l0.504-0.331L246.825,267.575z M247.153,268.284l-0.167,0.04l0.36-0.484L247.153,268.284z M246.964,266.043
			l-0.118-0.125l0.599,0.07L246.964,266.043z M247.704,268.839l-0.143,0.094l0.173-0.578L247.704,268.839z M247.414,265.405
			l-0.068-0.158l0.539,0.271L247.414,265.405z M249.691,264.691l0.035,0.602l-0.138-0.464L249.691,264.691z M248.86,264.594
			l0.239,0.554l-0.288-0.389L248.86,264.594z M248.046,264.787l0.414,0.439l-0.404-0.267L248.046,264.787z M248.308,269.309
			l-0.035-0.602l0.138,0.464L248.308,269.309z M249.14,269.406l-0.239-0.554l0.288,0.389L249.14,269.406z M249.048,267.836
			l-0.289-0.034l-0.26-0.13l-0.199-0.211l-0.115-0.267l-0.017-0.29l0.083-0.278l0.174-0.233l0.243-0.16l0.283-0.067l0.289,0.034
			l0.26,0.13l0.199,0.211l0.115,0.267l0.017,0.29l-0.083,0.279l-0.174,0.233l-0.243,0.16L249.048,267.836z M249.54,268.774
			l0.404,0.267l0.01,0.172L249.54,268.774z M251.175,266.425l0.171,0.02l-0.504,0.331L251.175,266.425z M250.847,265.716l0.167-0.04
			l-0.36,0.484L250.847,265.716z M250.296,265.161l0.143-0.094l-0.173,0.578L250.296,265.161z M250.114,268.482l0.471,0.113
			l0.068,0.158L250.114,268.482z M250.554,268.012l0.481-0.055l0.118,0.125L250.554,268.012z M250.807,267.419l0.434-0.216
			l0.154,0.077L250.807,267.419z"/>
	</g>
</g>
<g id="Shadow">
	<ellipse style="fill:#263238;" cx="247" cy="425.062" rx="156.5" ry="8.062"/>
</g>
<g id="Device">
	<g>
		<path style="fill:#C6FF00;stroke:#263238;stroke-linecap:round;stroke-linejoin:round;stroke-miterlimit:10;" d="M352.443,410.539
			H150.54V286.442c0-2.372,1.923-4.295,4.295-4.295h193.313c2.372,0,4.295,1.923,4.295,4.295V410.539z"/>
		<path style="fill:#263238;stroke:#263238;stroke-linecap:round;stroke-linejoin:round;stroke-miterlimit:10;" d="M342.071,412.268
			h-181.16v-116.08c0-2.372,1.923-4.295,4.295-4.295h172.57c2.372,0,4.295,1.923,4.295,4.295V412.268z"/>
		<path style="fill:#C6FF00;stroke:#263238;stroke-linecap:round;stroke-linejoin:round;stroke-miterlimit:10;" d="M350.714,420.911
			H143.286C133.739,420.911,126,415.13,126,408l0,0h242l0,0C368,415.13,360.261,420.911,350.714,420.911z"/>
	</g>
</g>
<g id="Shield">
	<g>
		<path style="fill:#C6FF00;stroke:#263238;stroke-linecap:round;stroke-linejoin:round;stroke-miterlimit:10;" d="M250.628,163.927
			c-13.313,12.677-47.39,25.472-87.12,52.621c0,0,2.482,91.742,87.12,141.888V163.927z"/>
		<path style="fill:#263238;stroke:#263238;stroke-linecap:round;stroke-linejoin:round;stroke-miterlimit:10;" d="M250.628,163.927
			c13.313,12.677,47.39,25.472,87.12,52.621c0,0-2.482,91.742-87.12,141.888V163.927z"/>
		<path style="fill:#263238;stroke:#263238;stroke-linecap:round;stroke-linejoin:round;stroke-miterlimit:10;" d="M250.628,171.736
			c-16.07,11.394-43.914,22.25-80.73,47.408c0,0,2.3,85.013,80.73,131.481c78.43-46.468,80.73-131.481,80.73-131.481
			C294.542,193.987,266.821,183.13,250.628,171.736z"/>
		<path style="fill:#C6FF00;stroke:#263238;stroke-linecap:round;stroke-linejoin:round;stroke-miterlimit:10;" d="M317.602,210.113
			c-56.161,16.992-99.047,66.348-118.484,92.377c11.787,17.286,28.319,34.396,51.51,48.136
			c78.43-46.468,80.73-131.481,80.73-131.481C326.619,215.906,322.034,212.909,317.602,210.113z"/>
		<g>
			<g>
				<path style="fill:#FFFFFF;stroke:#263238;stroke-linecap:round;stroke-linejoin:round;stroke-miterlimit:10;" d="
					M281.209,257.454h-60.167c-2.761,0-5-2.239-5-5v-28.34c0-19.345,15.738-35.084,35.083-35.084s35.084,15.739,35.084,35.084v28.34
					C286.209,255.215,283.971,257.454,281.209,257.454z M226.042,247.454h50.167v-23.34c0-13.832-11.252-25.084-25.084-25.084
					c-13.831,0-25.083,11.252-25.083,25.084V247.454z"/>
			</g>
			
				<rect x="212.326" y="243.794" style="fill:#FFFFFF;stroke:#263238;stroke-linecap:round;stroke-linejoin:round;stroke-miterlimit:10;" width="76.602" height="64.725"/>
			<path style="fill:#263238;stroke:#263238;stroke-linecap:round;stroke-linejoin:round;stroke-miterlimit:10;" d="
				M258.593,270.673c0-4.606-3.734-8.34-8.34-8.34c-4.606,0-8.34,3.734-8.34,8.34c0,3.172,1.772,5.93,4.379,7.34l-1.401,14.7h10.723
				l-1.401-14.7C256.822,276.603,258.593,273.845,258.593,270.673z"/>
		</g>
	</g>
</g>
<g id="Icons">
	<g>
		<g>
			<g>
				<path style="fill:none;stroke:#263238;stroke-linecap:round;stroke-linejoin:round;" d="M401.549,258.093
					c-0.038-0.5-0.078-1-0.121-1.5"/>
				<path style="fill:none;stroke:#263238;stroke-linecap:round;stroke-linejoin:round;stroke-dasharray:3.0079,3.0079;" d="
					M401.141,253.599c-3.04-28.718-14.21-56.318-32.03-79.077c-18.423-23.529-43.601-41.52-71.882-51.202
					c-29.242-10.011-61.395-10.996-91.206-2.845c-28.757,7.863-54.932,24.179-74.763,46.426
					c-19.885,22.307-33.066,50.249-37.521,79.806c-0.428,2.84-0.777,5.691-1.047,8.55"/>
				<path style="fill:none;stroke:#263238;stroke-linecap:round;stroke-linejoin:round;" d="M92.559,256.738
					c-0.042,0.498-0.082,0.997-0.119,1.495"/>
			</g>
		</g>
		<g>
			<polygon style="fill:#263238;stroke:#263238;stroke-linecap:round;stroke-linejoin:round;stroke-miterlimit:10;" points="
				126.991,232.03 135.851,195.979 108.966,195.979 			"/>
			<polygon style="fill:#C6FF00;stroke:#263238;stroke-linecap:round;stroke-linejoin:round;stroke-miterlimit:10;" points="
				126.991,232.03 128.963,197.346 111.854,197.346 			"/>
			<polygon style="fill:#C6FF00;stroke:#263238;stroke-linecap:round;stroke-linejoin:round;stroke-miterlimit:10;" points="
				126.991,232.03 125.163,194.648 108.054,194.648 			"/>
			<polygon style="fill:#263238;stroke:#263238;stroke-linecap:round;stroke-linejoin:round;stroke-miterlimit:10;" points="
				95.05,192.924 90.635,187.927 67.416,187.927 78.311,232.03 126.991,232.03 119.273,192.924 			"/>
		</g>
		<g>
			<path style="fill:#263238;stroke:#263238;stroke-linecap:round;stroke-linejoin:round;stroke-miterlimit:10;" d="
				M178.667,163.333h-58c-2.025,0-3.667-1.642-3.667-3.667v-31.333c0-2.025,1.642-3.667,3.667-3.667h58
				c2.025,0,3.667,1.642,3.667,3.667v31.333C182.333,161.692,180.692,163.333,178.667,163.333z"/>
			
				<rect x="117" y="132" style="fill:#C6FF00;stroke:#263238;stroke-linecap:round;stroke-linejoin:round;stroke-miterlimit:10;" width="65.333" height="14"/>
			<path style="fill:#FFFFFF;stroke:#263238;stroke-linecap:round;stroke-linejoin:round;stroke-miterlimit:10;" d="
				M168.542,157.161c0-1.509-1.223-2.733-2.733-2.733c-1.509,0-2.732,1.223-2.732,2.733c0,1.509,1.223,2.732,2.732,2.732
				C167.318,159.893,168.542,158.67,168.542,157.161z"/>
			<path style="fill:#FFFFFF;stroke:#263238;stroke-linecap:round;stroke-linejoin:round;stroke-miterlimit:10;" d="
				M176.132,157.161c0-1.509-1.223-2.733-2.733-2.733c-1.509,0-2.732,1.223-2.732,2.733c0,1.509,1.223,2.732,2.732,2.732
				C174.909,159.893,176.132,158.67,176.132,157.161z"/>
		</g>
		<g>
			
				<rect x="217.112" y="98.765" style="fill:#C6FF00;stroke:#263238;stroke-linecap:round;stroke-linejoin:round;stroke-miterlimit:10;" width="69.962" height="45.36"/>
			
				<rect x="220.517" y="101.64" style="fill:#263238;stroke:#263238;stroke-linecap:round;stroke-linejoin:round;stroke-miterlimit:10;" width="63.376" height="39.233"/>
			<path style="fill:#FFFFFF;stroke:#263238;stroke-linecap:round;stroke-linejoin:round;stroke-miterlimit:10;" d="
				M239.056,128.963c0-4.286-3.474-11.64-7.76-11.64c-4.286,0-7.76,7.354-7.76,11.64c0,4.286,3.474,5.335,7.76,5.335
				C235.581,134.298,239.056,133.249,239.056,128.963z"/>
			
				<circle style="fill:#FFFFFF;stroke:#263238;stroke-linecap:round;stroke-linejoin:round;stroke-miterlimit:10;" cx="231.295" cy="113.443" r="5.335"/>
			
				<line style="fill:none;stroke:#FFFFFF;stroke-width:2;stroke-linecap:round;stroke-linejoin:round;stroke-miterlimit:10;" x1="246.816" y1="109.107" x2="259.75" y2="109.107"/>
			
				<line style="fill:none;stroke:#FFFFFF;stroke-width:2;stroke-linecap:round;stroke-linejoin:round;stroke-miterlimit:10;" x1="246.816" y1="114.712" x2="259.75" y2="114.712"/>
			
				<line style="fill:none;stroke:#FFFFFF;stroke-width:2;stroke-linecap:round;stroke-linejoin:round;stroke-miterlimit:10;" x1="246.816" y1="124.628" x2="276.995" y2="124.628"/>
			
				<line style="fill:none;stroke:#FFFFFF;stroke-width:2;stroke-linecap:round;stroke-linejoin:round;stroke-miterlimit:10;" x1="246.816" y1="131.957" x2="276.995" y2="131.957"/>
		</g>
		<g>
			<path style="fill:#263238;stroke:#263238;stroke-width:2;stroke-linecap:round;stroke-linejoin:round;stroke-miterlimit:10;" d="
				M382.814,163.411h-52.031c-3.218,0-5.828-2.609-5.828-5.828v-27.09c0-3.218,2.609-5.828,5.828-5.828h52.031
				c3.219,0,5.828,2.609,5.828,5.828v27.09C388.641,160.802,386.032,163.411,382.814,163.411z"/>
			<path style="fill:#C6FF00;stroke:#263238;stroke-width:2;stroke-linecap:round;stroke-linejoin:round;stroke-miterlimit:10;" d="
				M359.34,143.07l29.301-14.822v-0.676c0-1.605-1.301-2.906-2.906-2.906h-57.875c-1.605,0-2.906,1.301-2.906,2.906v0.805
				l28.764,14.762C355.498,144.005,357.583,143.98,359.34,143.07z"/>
		</g>
		<g id="XMLID_9_">
			<g id="XMLID_13_">
				<g id="XMLID_14_">
					<path id="XMLID_16_" style="fill:#263238;" d="M420.76,224.7h-56.28c-2.235,0-4.046-1.811-4.046-4.046v-24.398
						c0-2.234,1.811-4.046,4.046-4.046h56.28c2.235,0,4.046,1.812,4.046,4.046v24.398C424.806,222.889,422.995,224.7,420.76,224.7z"
						/>
					<polyline id="XMLID_15_" style="fill:#263238;" points="360.435,216.202 360.435,233.652 370.17,222.447 					"/>
				</g>
			</g>
			<path id="XMLID_12_" style="fill:#C6FF00;" d="M382.881,209.049c0-1.842-1.493-3.335-3.335-3.335
				c-1.842,0-3.335,1.493-3.335,3.335c0,1.842,1.493,3.335,3.335,3.335C381.388,212.384,382.881,210.891,382.881,209.049z"/>
			<path id="XMLID_11_" style="fill:#C6FF00;" d="M397.174,209.049c0-1.842-1.493-3.335-3.335-3.335
				c-1.842,0-3.335,1.493-3.335,3.335c0,1.842,1.493,3.335,3.335,3.335C395.681,212.384,397.174,210.891,397.174,209.049z"/>
			<path id="XMLID_10_" style="fill:#C6FF00;" d="M411.467,209.049c0-1.842-1.493-3.335-3.335-3.335
				c-1.842,0-3.335,1.493-3.335,3.335c0,1.842,1.493,3.335,3.335,3.335C409.973,212.384,411.467,210.891,411.467,209.049z"/>
		</g>
		<path style="fill:#263238;" d="M126.654,273.272c-0.317-0.415-0.809-0.657-1.331-0.657H82.124l-1.667-5.002
			c-0.228-0.685-0.869-1.147-1.591-1.147H67.935c-0.926,0-1.677,0.751-1.677,1.677c0,0.926,0.751,1.677,1.677,1.677h9.722
			l10.549,31.647c0.228,0.685,0.869,1.146,1.591,1.146h0.611c-0.577,0.899-0.921,1.961-0.921,3.105c0,3.185,2.591,5.776,5.776,5.776
			c3.185,0,5.776-2.591,5.776-5.776c0-1.145-0.345-2.207-0.921-3.105h8.053c-0.577,0.899-0.922,1.961-0.922,3.105
			c0,3.185,2.592,5.776,5.777,5.776c3.185,0,5.776-2.591,5.776-5.776c0-1.145-0.345-2.207-0.921-3.105h1.294
			c0.927,0,1.677-0.751,1.677-1.677c0-0.926-0.751-1.677-1.677-1.677H91.006l-1.842-5.527h31.378c0.758,0,1.422-0.509,1.619-1.241
			l4.782-17.763C127.078,274.224,126.972,273.685,126.654,273.272z M95.262,308.141c-1.335,0-2.422-1.086-2.422-2.422
			c0-1.336,1.087-2.423,2.422-2.423c1.335,0,2.422,1.087,2.422,2.423C97.684,307.054,96.598,308.141,95.262,308.141z
			 M113.026,308.141c-1.336,0-2.423-1.086-2.423-2.422c0-1.336,1.087-2.423,2.423-2.423c1.335,0,2.422,1.087,2.422,2.423
			C115.447,307.054,114.361,308.141,113.026,308.141z M117.497,290.378h-6.21v-14.409h6.21V290.378z M101.722,275.969h6.21v14.409
			h-6.21V275.969z M98.368,290.378h-6.211v-14.409h6.211V290.378z M83.242,275.969h5.561v14.409h-0.758L83.242,275.969z
			 M120.851,284.45v-8.481h2.283L120.851,284.45z"/>
		<path style="fill:#263238;" d="M399.146,265.167c-13.326,0-24.167,10.841-24.167,24.167c0,13.326,10.841,24.167,24.167,24.167
			c13.326,0,24.167-10.841,24.167-24.167C423.313,276.007,412.472,265.167,399.146,265.167z M399.146,268.167
			c2.031,0,4.184,2.624,5.72,7.038h-11.44C394.961,270.79,397.115,268.167,399.146,268.167z M405.737,278.205
			c0.672,2.776,1.113,6.025,1.211,9.628h-15.604c0.098-3.604,0.539-6.853,1.211-9.628H405.737z M406.948,290.833
			c-0.116,4.274-0.714,8.053-1.607,11.13h-12.39c-0.893-3.076-1.491-6.855-1.607-11.13H406.948z M388.333,287.833h-10.279
			c0.248-3.517,1.356-6.792,3.12-9.628h8.277C388.812,281.091,388.421,284.339,388.333,287.833z M388.333,290.833
			c0.103,4.113,0.624,7.889,1.48,11.13H382.2c-2.356-3.153-3.851-6.973-4.145-11.13H388.333z M390.755,304.963
			c0.666,1.8,1.452,3.363,2.335,4.644c-3.078-0.921-5.851-2.533-8.168-4.644H390.755z M394.002,304.963h10.288
			c-1.474,3.497-3.356,5.537-5.144,5.537C397.358,310.5,395.475,308.46,394.002,304.963z M407.537,304.963h5.833
			c-2.317,2.11-5.09,3.723-8.168,4.644C406.085,308.326,406.871,306.763,407.537,304.963z M408.479,301.963
			c0.855-3.241,1.377-7.017,1.48-11.13h10.278c-0.294,4.157-1.789,7.977-4.145,11.13H408.479z M409.958,287.833
			c-0.087-3.494-0.479-6.742-1.118-9.628h8.277c1.763,2.837,2.871,6.112,3.119,9.628H409.958z M414.862,275.205h-6.817
			c-0.762-2.439-1.724-4.521-2.844-6.145C408.973,270.189,412.293,272.35,414.862,275.205z M393.09,269.06
			c-1.12,1.624-2.082,3.706-2.844,6.145h-6.817C385.999,272.35,389.318,270.189,393.09,269.06z"/>
	</g>
</g>
</svg>
